<svg xmlns="http://www.w3.org/2000/svg" viewBox="0 0 120 120"><defs><linearGradient id="gc" gradientUnits="userSpaceOnUse" x1="0" y1="0" x2="120" y2="120"><stop offset="0" stop-color="#7fff00"/><stop offset=".5" stop-color="#00f0ff"/><stop offset="1" stop-color="#ff00aa"/></linearGradient></defs><rect width="120" height="120" rx="20" fill="#0e100f"/>
      <path d="M22 6H98L114 22V98L98 114H22L6 98V22Z" fill="none" stroke="url(#gc)" stroke-width="2" stroke-linejoin="round"/>
      
      <g fill="none" stroke-linecap="round" class="ridges">
        <circle class="rg r1" cx="60" cy="52" r="7" stroke="#00f0ff" stroke-width="3" stroke-dasharray="26 18"/>
        <circle class="rg r2" cx="60" cy="52" r="13.5" stroke="#00f0ff" stroke-width="3" stroke-dasharray="34 8 14 8" opacity=".85"/>
        <circle class="rg r3" cx="60" cy="52" r="20" stroke="#7b827f" stroke-width="3" stroke-dasharray="48 10 22 12 20 14"/>
        <circle class="rg r4" cx="60" cy="52" r="26.5" stroke="#00f0ff" stroke-width="3" stroke-dasharray="62 12 30 10 40 12" opacity=".7"/>
        <circle class="rg r5" cx="60" cy="52" r="33" stroke="#7b827f" stroke-width="2.6" stroke-dasharray="80 16 36 12 50 14" opacity=".55"/>
      </g>
      <path class="span" d="M40.9 57.6A20 20 0 0 1 79.1 57.6" fill="none" stroke="#ff00aa" stroke-width="5" stroke-linecap="round"/>
      <g class="carets" fill="none" stroke="#7fff00" stroke-width="3" stroke-linecap="round" stroke-linejoin="round">
        <path d="M38 100l5-8 5 8M50 100l5-8 5 8M62 100l5-8 5 8M74 100l5-8 5 8"/>
      </g>
      <rect x="57" y="49" width="6" height="6" fill="#7fff00"/>
    </svg>
